<?xml version="1.0" encoding="UTF-8"?>
<svg width="37px" height="37px" viewBox="0 0 37 37" version="1.1" xmlns="http://www.w3.org/2000/svg" xmlns:xlink="http://www.w3.org/1999/xlink">
    <title>Group 2</title>
    <g id="Icons4delivery-👈" stroke="none" stroke-width="1" fill="none" fill-rule="evenodd">
        <g id="Symbology" transform="translate(-110.000000, -60.000000)" fill-rule="nonzero">
            <g id="Group-2" transform="translate(110.000000, 60.000000)">
                <path d="M28.9325808,3.48122438 C37.073936,9.39626518 38.8787204,20.7912256 32.9636796,28.9325808 C27.0486388,37.073936 15.6536784,38.8787204 7.51232322,32.9636796 C-0.629031992,27.0486388 -2.43381642,15.6536784 3.48122438,7.51232322 C9.39626518,-0.629031992 20.7912256,-2.43381642 28.9325808,3.48122438 Z" id="Rectangle-Copy-2" fill="#EB40F7"></path>
                <path d="M28.2466917,4.27837493 C35.9136537,9.84874884 37.6132741,20.5797298 32.0429002,28.2466917 C26.4725263,35.9136537 15.7415453,37.6132741 8.07458337,32.0429002 C0.407621432,26.4725263 -1.29199898,15.7415453 4.27837493,8.07458337 C9.84874884,0.407621432 20.5797298,-1.29199898 28.2466917,4.27837493 Z M5.99630493,9.32273258 C1.11526479,16.040908 2.60455718,25.44393 9.32273258,30.3249702 C16.040908,35.2060103 25.44393,33.7167179 30.3249702,26.9985425 C35.2060103,20.2803671 33.7167179,10.8773451 26.9985425,5.99630493 C20.2803671,1.11526479 10.8773451,2.60455718 5.99630493,9.32273258 Z M23.2036647,11.2195062 C27.0371456,14.0046932 27.8869558,19.3701837 25.1017689,23.2036647 C22.3165819,27.0371456 16.9510914,27.8869558 13.1176105,25.1017689 C9.28412949,22.3165819 8.43431929,16.9510914 11.2195062,13.1176105 C14.0046932,9.28412949 19.3701837,8.43431929 23.2036647,11.2195062 Z M17.8238671,11.7346736 C14.2749052,11.9206668 11.5486804,14.9484462 11.7346736,18.4974081 C11.7346736,18.4974081 13.8766616,18.3851512 13.8766616,18.3851512 C13.7526661,16.0191766 15.5701493,14.0006571 17.9361239,13.8766616 L17.8238671,11.7346736 Z" id="Combined-Shape-Copy" fill="#4F4542"></path>
            </g>
        </g>
    </g>
</svg>